solid placeholder_pistol
  facet normal 0 0 1
    outer loop
      vertex -0.15 -0.08 0.35
      vertex 0.15 -0.08 0.35
      vertex 0.15 0.08 0.35
    endloop
  endfacet
  facet normal 0 0 1
    outer loop
      vertex -0.15 -0.08 0.35
      vertex 0.15 0.08 0.35
      vertex -0.15 0.08 0.35
    endloop
  endfacet
  facet normal 0 0 -1
    outer loop
      vertex -0.15 -0.08 -0.35
      vertex 0.15 0.08 -0.35
      vertex 0.15 -0.08 -0.35
    endloop
  endfacet
  facet normal 0 0 -1
    outer loop
      vertex -0.15 -0.08 -0.35
      vertex -0.15 0.08 -0.35
      vertex 0.15 0.08 -0.35
    endloop
  endfacet
  facet normal 0 1 0
    outer loop
      vertex -0.15 0.08 -0.35
      vertex 0.15 0.08 0.35
      vertex 0.15 0.08 -0.35
    endloop
  endfacet
  facet normal 0 1 0
    outer loop
      vertex -0.15 0.08 -0.35
      vertex -0.15 0.08 0.35
      vertex 0.15 0.08 0.35
    endloop
  endfacet
  facet normal 0 -1 0
    outer loop
      vertex -0.15 -0.08 -0.35
      vertex 0.15 -0.08 -0.35
      vertex 0.15 -0.08 0.35
    endloop
  endfacet
  facet normal 0 -1 0
    outer loop
      vertex -0.15 -0.08 -0.35
      vertex 0.15 -0.08 0.35
      vertex -0.15 -0.08 0.35
    endloop
  endfacet
  facet normal 1 0 0
    outer loop
      vertex 0.15 -0.08 -0.35
      vertex 0.15 0.08 -0.35
      vertex 0.15 0.08 0.35
    endloop
  endfacet
  facet normal 1 0 0
    outer loop
      vertex 0.15 -0.08 -0.35
      vertex 0.15 0.08 0.35
      vertex 0.15 -0.08 0.35
    endloop
  endfacet
  facet normal -1 0 0
    outer loop
      vertex -0.15 -0.08 -0.35
      vertex -0.15 0.08 0.35
      vertex -0.15 0.08 -0.35
    endloop
  endfacet
  facet normal -1 0 0
    outer loop
      vertex -0.15 -0.08 -0.35
      vertex -0.15 -0.08 0.35
      vertex -0.15 0.08 0.35
    endloop
  endfacet
endsolid placeholder_pistol
